<?xml version="1.0" standalone="no"?>
<!DOCTYPE svg PUBLIC "-//W3C//DTD SVG 20010904//EN"
 "http://www.w3.org/TR/2001/REC-SVG-20010904/DTD/svg10.dtd">
<svg version="1.0" xmlns="http://www.w3.org/2000/svg"
 width="1664.000000pt" height="634.000000pt" viewBox="0 0 1664.000000 634.000000"
 preserveAspectRatio="xMidYMid meet">

<g transform="translate(0.000000,634.000000) scale(0.100000,-0.100000)"
fill="#000000" stroke="none">
<path d="M13910 6304 c-230 -59 -728 -365 -1156 -709 -310 -251 -767 -688
-1064 -1020 -450 -502 -886 -1073 -1259 -1647 -151 -233 -214 -343 -316 -548
-85 -172 -110 -231 -196 -465 -56 -152 -120 -286 -167 -351 -31 -43 -306 -245
-437 -322 -192 -112 -517 -192 -602 -148 -68 34 -90 98 -72 202 29 172 116
408 282 764 55 119 101 231 108 268 26 124 -20 260 -118 353 -95 90 -223 127
-394 115 -242 -16 -445 -117 -1328 -655 -146 -89 -267 -161 -270 -161 -3 0
-20 26 -38 58 -74 132 -177 233 -280 273 -85 32 -201 30 -313 -6 -215 -69
-1195 -489 -1690 -725 -271 -129 -370 -173 -377 -167 -2 3 36 65 85 139 115
172 155 245 187 343 24 69 27 92 23 170 -3 78 -9 99 -38 160 -89 180 -281 285
-519 285 -222 0 -708 -95 -1176 -230 -377 -109 -1050 -368 -1575 -607 -435
-199 -1007 -510 -1093 -596 -72 -72 -127 -235 -108 -318 21 -92 102 -184 188
-213 81 -28 141 -21 271 30 64 25 387 182 717 348 757 380 947 465 1535 682
363 134 510 182 695 229 183 46 265 61 265 48 0 -4 -59 -84 -132 -178 -599
-774 -859 -1119 -896 -1190 -22 -42 -27 -63 -27 -130 0 -101 23 -155 97 -228
115 -114 313 -162 499 -123 159 34 263 93 884 502 674 444 952 605 1330 769
61 26 158 72 218 101 88 45 111 52 127 44 19 -10 24 -21 21 -47 -1 -6 -31 -62
-67 -125 -123 -215 -195 -539 -150 -675 46 -137 240 -257 388 -240 95 12 164
56 329 210 526 494 817 736 1189 989 216 147 535 336 547 324 3 -2 -7 -69 -21
-148 -60 -327 -80 -588 -57 -710 28 -144 144 -326 272 -426 183 -143 447 -226
664 -208 189 16 316 65 695 273 91 50 252 134 357 188 247 126 229 125 463 21
390 -174 574 -210 1075 -211 387 0 658 26 993 96 345 72 546 160 599 263 32
62 11 189 -47 284 -50 82 -162 91 -456 38 -408 -74 -623 -96 -989 -103 -180
-3 -323 -1 -377 5 -197 25 -312 127 -278 251 15 56 40 83 127 137 317 194 704
484 1007 753 194 173 685 665 898 901 670 742 1152 1388 1391 1865 131 262
217 538 217 695 0 67 -30 190 -61 252 -100 199 -321 274 -599 202z m-239 -864
c32 -18 22 -56 -42 -168 -357 -621 -942 -1327 -1723 -2081 -320 -309 -713
-667 -771 -703 -42 -25 -126 -25 -150 2 -40 45 -6 110 218 409 632 842 1552
1830 2256 2420 167 140 171 142 212 121z"/>
<path d="M14917 3550 c-610 -58 -1142 -474 -1340 -1047 -69 -197 -82 -282 -82
-523 1 -183 4 -229 23 -313 70 -317 210 -575 432 -797 222 -222 480 -361 797
-432 84 -19 129 -22 313 -22 237 0 314 11 502 74 336 113 633 344 826 645 288
446 325 1040 96 1520 -193 406 -556 714 -989 840 -172 50 -403 72 -578 55z
m747 -682 c40 -61 27 -163 -26 -215 -44 -42 -67 -50 -195 -64 -105 -11 -515
-6 -583 7 -26 6 -29 4 -34 -27 -10 -67 -35 -293 -33 -296 2 -1 32 7 67 19 90
28 288 31 375 4 264 -80 431 -293 443 -566 5 -126 -12 -209 -64 -319 -71 -147
-234 -269 -409 -306 -91 -19 -265 -19 -338 0 -169 44 -318 168 -400 334 -54
107 -59 150 -24 201 57 85 184 97 248 24 9 -11 30 -46 48 -79 55 -105 101
-157 171 -193 60 -31 71 -34 135 -30 87 6 149 33 213 92 71 66 106 148 106
248 0 66 -5 85 -33 142 -36 75 -90 126 -171 165 -45 21 -69 26 -130 25 -95 0
-164 -27 -248 -94 l-62 -50 -135 0 c-130 0 -135 1 -135 21 0 24 108 904 115
937 l5 22 413 1 c226 1 450 4 497 8 156 14 168 13 184 -11z"/>
</g>
</svg>
