<?xml version="1.0" standalone="no"?>
<!DOCTYPE svg PUBLIC "-//W3C//DTD SVG 20010904//EN"
 "http://www.w3.org/TR/2001/REC-SVG-20010904/DTD/svg10.dtd">
<svg version="1.0" xmlns="http://www.w3.org/2000/svg"
 width="1915.000000pt" height="2048.000000pt" viewBox="0 0 1915.000000 2048.000000"
 preserveAspectRatio="xMidYMid meet">

<g transform="translate(0.000000,2048.000000) scale(0.100000,-0.100000)"
fill="#000000" stroke="none">
<path d="M10910 15753 l1 -1568 2711 -1565 c1491 -861 2715 -1566 2720 -1568
4 -2 8 702 8 1565 l-1 1568 -2660 1535 c-1463 844 -2687 1550 -2720 1568 l-59
34 0 -1569z"/>
<path d="M0 12613 l0 -1568 1351 -780 c744 -429 1356 -782 1360 -783 5 -2 8
674 7 1564 l-3 1568 -1330 769 c-731 422 -1342 775 -1357 783 l-28 15 0 -1568z"/>
<path d="M6803 11817 l-1353 -782 0 -4715 0 -4715 1352 -780 c743 -429 1355
-782 1360 -783 4 -2 8 1410 8 3138 0 2988 1 3142 18 3135 9 -3 621 -355 1359
-781 737 -426 1344 -774 1347 -774 3 0 5 705 4 1566 l-3 1566 -1362 787 -1363
786 0 1568 c0 862 -3 1567 -7 1566 -5 0 -617 -352 -1360 -782z"/>
</g>
</svg>
